<svg xmlns="http://www.w3.org/2000/svg" version="1.0" viewBox="0 0 399.72 83.753"><path d="M79.463 291.39h88.002v26.206H79.463z" style="stroke:#000;stroke-width:1.5;fill:#fff" transform="matrix(4.4799 0 0 2.9866 -353.243 -867.53)"/><path d="M81.923 291.14h1.869v19.539h-1.869z" style="stroke:#000;stroke-width:.26172;fill:#000" transform="matrix(4.4799 0 0 2.2828 -349.717 -662.906)"/><path d="M92.505 291.1h1.942v9.712h-1.942zm-5.309 0h1.942v9.712h-1.942zm10.618 0h1.942v9.712h-1.942zm5.306 0h1.942v9.712h-1.942z" style="stroke:#000;stroke-width:.18812;fill:#000" transform="matrix(4.4799 0 0 2.2828 -349.717 -662.906)"/><path d="M108.47 291.14h1.869v19.539h-1.869z" style="stroke:#000;stroke-width:.26172;fill:#000" transform="matrix(4.4799 0 0 2.2828 -349.717 -662.906)"/><path d="M119.05 291.1h1.942v9.712h-1.942zm-5.31 0h1.942v9.712h-1.942zm10.62 0h1.942v9.712h-1.942zm5.31 0h1.942v9.712h-1.942z" style="stroke:#000;stroke-width:.18812;fill:#000" transform="matrix(4.4799 0 0 2.2828 -349.717 -662.906)"/><path d="M135.01 291.14h1.869v19.539h-1.869z" style="stroke:#000;stroke-width:.26172;fill:#000" transform="matrix(4.4799 0 0 2.2828 -349.717 -662.906)"/><path d="M145.6 291.1h1.942v9.712H145.6zm-5.31 0h1.942v9.712h-1.942zm10.62 0h1.942v9.712h-1.942zm5.3 0h1.942v9.712h-1.942z" style="stroke:#000;stroke-width:.18812;fill:#000" transform="matrix(4.4799 0 0 2.2828 -349.717 -662.906)"/><path d="M161.56 291.14h1.869v19.539h-1.869z" style="stroke:#000;stroke-width:.26172;fill:#000" transform="matrix(4.4799 0 0 2.2828 -349.717 -662.906)"/></svg>