<svg xmlns="http://www.w3.org/2000/svg" width="341.872" height="341.872" version="1.0"><path d="M3.88 282.65 282.65 3.88l55.343 55.343-278.77 278.77Z" style="fill:#fff;stroke:#000;stroke-width:5.48673"/><path d="m13.44 271.637 5.92-5.92 31.54 31.54-5.921 5.92z" style="fill:#000;stroke:#000;stroke-width:.836961"/><path d="m46.896 238.052 6.152-6.152 15.677 15.677-6.152 6.151zM30.08 254.869l6.151-6.152 15.677 15.677-6.151 6.152zm33.635-33.635 6.152-6.152 15.677 15.677-6.152 6.152zm16.808-16.808 6.152-6.152 15.677 15.677-6.152 6.152z" style="fill:#000;stroke:#000;stroke-width:.601593"/><path d="m97.534 187.543 5.92-5.92 31.54 31.539-5.92 5.92z" style="fill:#000;stroke:#000;stroke-width:.836961"/><path d="m130.985 153.963 6.151-6.152 15.677 15.677-6.151 6.152zm-16.821 16.821 6.152-6.152 15.677 15.677-6.152 6.152zm33.641-33.642 6.152-6.151 15.677 15.676-6.152 6.152zm16.821-16.82 6.152-6.152 15.677 15.677-6.152 6.151z" style="fill:#000;stroke:#000;stroke-width:.601593"/><path d="m181.607 103.47 5.92-5.92 31.54 31.54-5.92 5.92z" style="fill:#000;stroke:#000;stroke-width:.836961"/><path d="m215.089 69.859 6.152-6.152 15.677 15.677-6.152 6.152zm-16.821 16.82 6.152-6.151 15.677 15.677-6.152 6.152zm33.642-33.64 6.152-6.153 15.676 15.677-6.151 6.152zm16.789-16.79 6.152-6.152 15.677 15.677-6.152 6.152z" style="fill:#000;stroke:#000;stroke-width:.601593"/><path d="m265.711 19.366 5.92-5.92 31.54 31.539-5.92 5.92z" style="fill:#000;stroke:#000;stroke-width:.836961"/></svg>