<svg xmlns="http://www.w3.org/2000/svg" version="1.0" viewBox="0 0 60 60"><path d="m7.8 47.723 20.774-35.98.596 38.171 25.206-9.862-10.771-22.466" style="stroke-linejoin:round;stroke:#fff;stroke-linecap:round;stroke-width:10;fill:none"/><path d="M4.65 44.875a.275.275 0 0 0-.276.276v5.979c0 .153.124.276.277.276h5.978a.275.275 0 0 0 .276-.276v-5.979a.275.275 0 0 0-.276-.276H4.651zM25.089 8.232a.275.275 0 0 0-.276.276v5.978c0 .153.123.276.276.276h5.978a.275.275 0 0 0 .276-.276V8.508a.275.275 0 0 0-.276-.276h-5.978zM40.448 14.278a.276.276 0 0 0-.276.276v5.979c0 .153.124.276.276.276h5.979a.275.275 0 0 0 .276-.276v-5.979a.275.275 0 0 0-.276-.276h-5.979zM26.782 45.238a.275.275 0 0 0-.276.276v5.978c0 .153.123.276.276.276h5.978a.275.275 0 0 0 .276-.276v-5.978a.275.275 0 0 0-.276-.276h-5.978z" style="stroke-linejoin:round;stroke:#fff;stroke-linecap:round;stroke-width:7.5;fill:none"/><path d="m7.8 47.723 20.774-35.98.596 38.171 25.206-9.862-10.771-22.466" style="stroke-linejoin:round;stroke:#000;stroke-linecap:round;stroke-width:5;fill:none"/><path d="M2.072 44.477a.29.29 0 0 0-.29.29v6.29c0 .161.129.291.29.291h6.29c.16 0 .29-.13.29-.291v-6.29a.29.29 0 0 0-.29-.29h-6.29z" style="stroke-linejoin:round;fill-rule:evenodd;stroke:#000;stroke-linecap:round;stroke-width:2.6303;fill:#fff" transform="translate(2.681 2.603) scale(.95045)"/><path d="M1.435 44.095a.29.29 0 0 0-.29.29v6.291c0 .16.13.29.29.29h6.29c.162 0 .291-.13.291-.29v-6.291a.29.29 0 0 0-.29-.29h-6.29z" style="stroke-linejoin:round;fill-rule:evenodd;stroke:#000;stroke-linecap:round;stroke-width:2.6303;fill:#fff" transform="translate(23.724 -33.678) scale(.95045)"/><path d="M40.448 14.278a.276.276 0 0 0-.276.276v5.979c0 .153.124.276.276.276h5.979a.275.275 0 0 0 .276-.276v-5.979a.275.275 0 0 0-.276-.276h-5.979z" style="stroke-linejoin:round;fill-rule:evenodd;stroke:#000;stroke-linecap:round;stroke-width:2.5;fill:#fff"/><path d="M44.952 13.812a.289.289 0 0 0-.29.29v6.29a.29.29 0 0 0 .29.291h6.29a.29.29 0 0 0 .291-.291v-6.29a.29.29 0 0 0-.291-.29h-6.29z" style="stroke-linejoin:round;fill-rule:evenodd;stroke:#000;stroke-linecap:round;stroke-width:2.6303;fill:#fff" transform="translate(-15.943 32.111) scale(.95045)"/></svg>